# xmcd
#
# Track frame offsets: 
#        150
#        15280
#        28607
#        40880
#        56724
#        69537
#        84411
#        100636
#        111742
#        125121
#        136575
#        144293
#        154717
#        174422
#        185508
#
# Disc length: 2792 seconds
#
# Revision: 7
# Processed by: cddbd v1.5.2PL0 Copyright (c) Steve Scherf et al.
# Submitted via: ExactAudioCopyFreeDBPlugin 1.0
#
DISCID=c30ae60f
DTITLE=Various Artist - The Best Smooth Jazz ...Ever! vol. 2: Deluxe Edition
DYEAR=2005
DGENRE=Jazz
TTITLE0=Peggy Lee - Fever
TTITLE1=Dionne Wawrick - Walk On By
TTITLE2=Dean Martin - Sway
TTITLE3=Aretha Franklin - I Say A Little Prayer
TTITLE4=Kay Starr - I Cry By Night
TTITLE5=Norah Jones - Come Away With Me
TTITLE6=Joss Stone - The Chokin' Kind
TTITLE7=Nat King Cole - Bidin' My Time
TTITLE8=Nancy Wilson - The Nearness Of You
TTITLE9=Les Baxter - Unchained Melody
TTITLE10=George Michael - My Baby Just Cares For Me
TTITLE11=Angela McCluskey - I Came Aching
TTITLE12=Randy Crafword - Rainy Night In Georgia
TTITLE13=Bryan Ferry - Falling In Love Again
TTITLE14=Dianne Reeves - In A Sentimental Mood
EXTD=YEAR: 2005
EXTT0=
EXTT1=
EXTT2=
EXTT3=
EXTT4=
EXTT5=
EXTT6=
EXTT7=
EXTT8=
EXTT9=
EXTT10=
EXTT11=
EXTT12=
EXTT13=
EXTT14=
PLAYORDER=
